<svg width="100" height="144" viewBox="0 0 100 144" fill="none" xmlns="http://www.w3.org/2000/svg">
<path d="M49.9975 40.1379C55.472 50.8931 62.5389 60.9818 71.2328 70.0143C71.8807 70.6856 72.5384 71.3471 73.1961 72.0036C81.3807 63.8792 90.4159 57.1961 100 51.9345C89.6444 46.2484 79.9317 38.9089 71.2378 29.8764C62.5438 20.8438 55.477 10.7551 50.0024 0C44.5279 10.7551 37.461 20.8438 28.7671 29.8764C20.0731 38.9089 10.3554 46.2484 0.00476074 51.9345C9.58887 57.1961 18.6191 63.8792 26.8086 72.0036C27.4663 71.3471 28.1241 70.6905 28.7719 70.0143C37.4659 60.9818 44.5329 50.8931 50.0074 40.1379H49.9975Z" fill="#4FC6BA"/>
<path d="M71.238 73.9854C62.544 83.0179 55.4771 93.1066 50.0026 103.862C44.5281 93.1066 37.4612 83.0179 28.7673 73.9854C28.1194 73.3141 27.4616 72.6526 26.8038 71.9961C18.6193 80.1204 9.58411 86.8036 0 92.0652C10.3556 97.7512 20.0684 105.091 28.7623 114.123C37.4563 123.156 44.5232 133.245 49.9977 144C55.4722 133.245 62.5391 123.156 71.233 114.123C79.927 105.091 89.6446 97.7512 99.9952 92.0652C90.4111 86.8036 81.3809 80.1204 73.1914 71.9961C72.5336 72.6526 71.8759 73.3092 71.2281 73.9854H71.238Z" fill="#4FC6BA"/>
</svg>
