<svg width="199" height="205" viewBox="0 0 199 205" fill="none" xmlns="http://www.w3.org/2000/svg">
<path d="M118.104 56.0551V102.819H117.896C113.503 102.819 109.166 102.59 104.886 102.18C45.8912 96.4676 0 52.9037 0 0H53.7155C53.7155 30.974 82.5445 56.0551 118.104 56.0551Z" fill="#FCAA37"/>
<path d="M118.104 158.236V205C52.8866 205 0 158.975 0 102.181H53.7155C53.7155 133.155 82.5445 158.236 118.104 158.236Z" fill="#FCAA37"/>
<path d="M236 56.0551V102.819H235.793C231.4 102.819 227.063 102.59 222.784 102.18C163.788 96.4676 117.896 52.9037 117.896 0H171.613C171.613 30.974 200.441 56.0551 236 56.0551Z" fill="#FCAA37"/>
<path d="M236 158.236V205C170.783 205 117.896 158.975 117.896 102.181H171.613C171.613 133.155 200.441 158.236 236 158.236Z" fill="#FCAA37"/>
</svg>
