<svg width="125" height="125" viewBox="0 0 125 125" fill="none" xmlns="http://www.w3.org/2000/svg">
<path d="M79.8322 17.3335C79.8322 39.7375 62.5006 62.5051 62.5006 62.5051C62.5006 62.5051 45.1685 39.7375 45.1685 17.3335C45.1685 7.75773 52.9256 0 62.5006 0C72.0755 0 79.8322 7.75773 79.8322 17.3335Z" fill="#AFD212"/>
<path d="M17.3321 45.1609C39.7343 45.1609 62.5004 62.4944 62.5004 62.4944C62.5004 62.4944 39.7343 79.8276 17.3321 79.8276C7.75711 79.8276 0 72.0701 0 62.4944C0 52.9186 7.75711 45.1609 17.3321 45.1609Z" fill="#AFD212"/>
<path d="M45.1685 107.667C45.1685 85.2627 62.5006 62.4951 62.5006 62.4951C62.5006 62.4951 79.8322 85.2627 79.8322 107.667C79.8322 117.243 72.0755 125 62.5006 125C52.9256 125 45.1685 117.243 45.1685 107.667Z" fill="#AFD212"/>
<path d="M107.668 79.8405C85.2657 79.8405 62.5001 62.5073 62.5001 62.5073C62.5001 62.5073 85.2657 45.1738 107.668 45.1738C117.243 45.1738 125 52.9316 125 62.5073C125 72.083 117.243 79.8405 107.668 79.8405Z" fill="#AFD212"/>
</svg>
