<svg width="139" height="134" viewBox="0 0 139 134" fill="none" xmlns="http://www.w3.org/2000/svg">
<path d="M100.304 93.2886L104.708 72.0491C105.096 70.1774 106.215 68.5325 107.807 67.4765C117.667 60.9373 121.053 47.7609 114.901 37.7775C108.478 27.3443 94.6659 24.4254 84.4323 31.2127L83.9528 31.5308C82.3511 32.5931 80.4101 32.9776 78.5348 32.6071L57.2548 28.4026C48.7682 26.7259 40.4528 32.241 38.6962 40.7115L34.2918 61.9509C33.9036 63.8227 32.785 65.4674 31.1929 66.5234C21.3334 73.0626 17.9473 86.2392 24.0992 96.2226C30.5217 106.656 44.3343 109.575 54.5679 102.787L55.0474 102.469C56.6491 101.407 58.5899 101.022 60.4652 101.393L81.7452 105.597C90.2318 107.274 98.5472 101.759 100.304 93.2886ZM76.169 86.2168L58.4172 82.7095C53.0455 81.6482 49.5986 76.4511 50.7104 71.0897L54.3846 53.3716C55.4964 48.0102 60.7427 44.5306 66.1143 45.5919L83.8665 49.0992C89.2381 50.1605 92.685 55.3576 91.5732 60.719L87.8987 78.4371C86.7869 83.7986 81.5406 87.2781 76.169 86.2168Z" fill="#EAB748"/>
</svg>
