<svg width="332" height="61" viewBox="0 0 332 61" fill="none" xmlns="http://www.w3.org/2000/svg">
<path d="M322.161 14.2084C316.71 14.2084 312.288 18.6639 312.288 24.1567V37.2938C312.086 38.2207 308.845 41.1202 302.812 41.1202C297.251 41.1202 293.875 38.4587 293.403 37.2768C293.403 37.1408 293.42 37.0047 293.42 36.8602V24.0038C293.42 10.7732 283.749 0.00851123 271.851 0.00851123C262.974 0.00851123 256.561 5.26328 253.126 13.2475C249.624 21.4018 251.464 29.148 249.641 37.2938C249.439 38.2207 246.19 41.1202 240.165 41.1202C234.604 41.1202 231.229 38.4587 230.756 37.2768C230.756 37.1408 230.773 37.0047 230.773 36.8602V24.0038C230.773 10.7732 221.103 0.00851123 209.205 0.00851123C199.703 0.00851123 193.298 6.21565 189.864 14.6761C186.699 22.4732 188.514 29.5732 186.784 37.2853C186.581 38.2121 183.333 41.1116 177.308 41.1116C171.747 41.1116 168.371 38.4502 167.899 37.2683C167.899 37.1323 167.916 36.9962 167.916 36.8517V23.9952C167.916 10.7647 158.245 0 146.347 0C137.208 0 130.609 5.98608 126.998 14.0469C123.268 22.3712 126.491 29.029 124.643 37.2853C124.441 38.2121 121.192 41.1116 115.167 41.1116C109.606 41.1116 106.231 38.4502 105.758 37.2683C105.758 37.1323 105.775 36.9962 105.775 36.8517V23.9952C105.775 10.7647 96.1049 0 84.2152 0C76.4941 0 67.5492 5.93502 64.4777 13.154C61.2289 20.7896 63.6761 29.8708 62.0053 37.2853C61.7943 38.2121 58.554 41.1116 52.529 41.1116C46.9681 41.1116 43.5928 38.4502 43.1203 37.2683C43.1203 37.1323 43.1372 36.9962 43.1372 36.8517V23.9952C43.1372 10.7647 33.4667 0 21.5686 0C9.67045 0 0 10.6201 0 23.6806V36.8517C0 42.3446 4.42168 46.8 9.87288 46.8C15.3241 46.8 19.7458 42.3446 19.7458 36.8517V23.6806C19.7458 21.2743 21.1298 19.8884 21.5686 19.8884C21.9567 19.9649 23.1296 21.1468 23.3574 23.2725C23.3321 23.5616 23.3152 23.8506 23.3152 24.1482V37.0048C23.3152 43.9261 26.8763 50.4818 33.0953 54.9969C38.4284 58.8657 45.331 61 52.529 61C67.2371 61 79.0761 52.6161 81.3376 41.2902C82.0042 39.9552 82.3839 38.4502 82.3839 36.8432V23.6721C82.3839 21.2658 83.7679 19.8799 84.2067 19.8799C84.5949 19.9564 85.7677 21.1383 85.9956 23.264C85.9703 23.5531 85.9535 23.8422 85.9535 24.1398V36.9963C85.9535 43.9176 89.5144 50.4733 95.7335 54.9884C101.067 58.8572 107.961 60.9915 115.167 60.9915C130.896 60.9915 143.351 51.3917 144.313 38.8669C144.448 38.2121 144.516 37.5319 144.516 36.8346V23.6636C144.516 21.2573 145.9 19.8713 146.339 19.8713C146.727 19.9479 147.9 21.1298 148.128 23.2555C148.102 23.5446 148.085 23.8337 148.085 24.1313V36.9877C148.085 43.9091 151.646 50.4648 157.865 54.9799C163.199 58.8487 170.101 60.983 177.299 60.983C191.729 60.983 203.407 52.9051 205.973 41.9024C206.85 40.4143 207.365 38.6883 207.365 36.8346V23.6636C207.365 21.2573 208.749 19.8713 209.188 19.8713C209.576 19.9479 210.749 21.1298 210.977 23.2555C210.951 23.5446 210.934 23.8337 210.934 24.1313V36.9877C210.934 43.9091 214.496 50.4648 220.715 54.9799C226.048 58.8487 232.95 60.983 240.148 60.983C248.772 60.983 257.886 57.9984 263.767 51.4002C270.813 43.4924 270.003 33.6375 270.003 23.6636C270.003 21.2573 271.387 19.8713 271.826 19.8713C272.214 19.9479 273.387 21.1298 273.615 23.2555C273.59 23.5446 273.573 23.8337 273.573 24.1313V36.9877C273.573 43.9091 277.134 50.4648 283.353 54.9799C288.686 58.8487 295.588 60.983 302.786 60.983C319.165 60.983 332 50.5839 332 37.3023V24.1313C332 18.6384 327.578 14.1828 322.127 14.1828L322.161 14.2084Z" fill="#897BFF"/>
</svg>
