<svg width="400" height="397" viewBox="0 0 400 397" fill="none" xmlns="http://www.w3.org/2000/svg">
<path d="M102.974 91.2103C107.827 112.445 117.032 131.849 130.338 148.861C144.928 167.551 164.527 183.383 188.635 196.05C162.336 196.981 138.353 193.163 117.157 184.594C97.8708 176.802 80.8391 165.129 66.531 149.824C42.0476 123.715 33.9075 95.7743 33.8135 95.4949L28.0211 97.1086C28.3655 98.2883 36.5687 126.509 61.9287 153.705C76.8316 169.693 94.5833 181.924 114.715 190.058C136.787 198.999 161.709 203.004 188.979 202.01C166.687 215.856 143.957 224.425 121.29 227.529C100.657 230.354 80.0247 228.647 59.9245 222.531C25.6415 212.069 4.47666 191.983 4.19488 191.704L2.09744 193.846L0 195.988C0.876644 196.857 22.2291 217.223 57.8898 228.182C78.8666 234.608 100.407 236.409 121.916 233.49C145.523 230.293 169.161 221.383 192.266 207.009C179.931 230.044 164.59 248.733 146.525 262.673C130.088 275.339 111.365 284.125 90.8579 288.751C55.8861 296.698 27.4261 289.775 27.0504 289.682L26.299 292.569L25.5476 295.456C26.7687 295.767 55.5099 302.814 91.9219 294.618C113.337 289.806 132.905 280.679 150.062 267.485C168.91 253.018 184.878 233.583 197.651 209.678C198.591 235.756 194.74 259.537 186.099 280.555C178.24 299.678 166.468 316.567 151.033 330.754C124.703 355.032 96.5247 363.104 96.2429 363.197L97.057 366.053L97.871 368.909C99.0608 368.567 127.52 360.434 154.947 335.288C171.071 320.51 183.406 302.907 191.609 282.945C200.626 261.058 204.665 236.346 203.663 209.306C217.627 231.41 226.268 253.949 229.399 276.425C232.248 296.884 230.526 317.343 224.358 337.274C213.807 371.269 193.55 392.255 193.269 392.535L195.429 394.614L197.589 396.694C198.465 395.825 219.004 374.652 230.056 339.292C236.537 318.492 238.353 297.133 235.41 275.805C232.686 255.905 225.798 236.005 214.871 216.416C212.93 212.939 210.895 209.492 208.704 206.046C231.935 218.278 250.782 233.49 264.84 251.404C277.614 267.702 286.475 286.267 291.14 306.602C299.155 341.279 292.173 369.499 292.079 369.872L297.903 371.331C298.216 370.12 305.322 341.621 297.057 305.515C293.926 291.793 288.979 278.847 282.248 266.833C278.585 260.22 274.389 253.918 269.661 247.864C255.072 229.175 235.473 213.342 211.365 200.675C237.664 199.744 261.646 203.562 282.842 212.131C302.128 219.923 319.161 231.596 333.469 246.901C357.952 273.01 366.092 300.951 366.186 301.23L371.978 299.617C371.79 298.903 368.753 288.533 360.957 274.501C355.698 265.063 348.277 253.949 338.071 243.021C323.168 227.032 305.416 214.801 285.284 206.667C263.212 197.726 238.29 193.722 211.02 194.715C233.312 180.869 256.043 172.301 278.71 169.196C299.343 166.371 319.975 168.078 340.075 174.194C374.452 184.687 395.586 204.835 395.805 205.022L397.903 202.88L400 200.738C399.123 199.868 377.77 179.502 342.109 168.543C321.133 162.117 299.593 160.317 278.084 163.235C254.477 166.433 230.839 175.343 207.733 189.716C220.068 166.681 235.41 147.992 253.475 134.053C269.912 121.386 288.635 112.6 309.142 107.974C344.114 100.027 372.573 106.95 372.949 107.044L373.701 104.156L374.452 101.269C373.231 100.958 344.49 93.9112 308.078 102.107C286.663 106.919 267.094 116.046 249.937 129.241C231.089 143.708 215.122 163.142 202.348 187.047C201.409 160.969 205.26 137.188 213.901 116.171C221.76 97.0469 233.532 80.1586 248.967 65.9709C275.266 41.7557 303.381 33.6523 303.756 33.5282L302.128 27.7853C300.938 28.1268 272.48 36.2601 245.053 61.4066C228.929 76.1841 216.594 93.7871 208.391 113.749C199.374 135.636 195.335 160.348 196.337 187.388C182.373 165.284 173.732 142.746 170.601 120.269C167.752 99.8101 169.474 79.3511 175.641 59.4201C186.192 25.4256 206.45 4.43897 206.731 4.15956L204.571 2.07978L202.41 0C201.534 0.869264 180.996 22.042 169.944 57.4024C163.463 78.2027 161.647 99.5616 164.59 120.89C167.815 144.298 176.8 167.737 191.296 190.648C168.065 178.416 149.217 163.204 135.159 145.291C122.385 128.992 113.525 110.427 108.86 90.0923C100.845 55.4149 107.827 27.1952 107.921 26.8227L105.01 26.0776L102.097 25.3326C101.784 26.5433 94.6771 55.0426 102.943 91.1481L102.974 91.2103Z" fill="#F134FB"/>
</svg>
