<svg width="400" height="168" viewBox="0 0 400 168" fill="none" xmlns="http://www.w3.org/2000/svg">
<path d="M100.804 26.0171C99.5985 13.4638 90.7897 0 75.4923 0C58.2203 0 52.2065 10.8993 50.4883 24.1707C48.77 10.8993 42.7562 0 25.4842 0C4.51921 0 -4.26465 25.3251 2.01843 38.8785C6.24989 47.9954 14.7255 55.2272 23.6628 61.4847C32.6002 67.7293 50.8602 80.5264 50.8602 80.5264C50.8602 80.5264 68.4014 67.7421 77.3387 61.4847C86.2761 55.24 94.7517 47.9954 98.9831 38.8785C99.9577 36.7756 100.573 34.3907 100.83 31.8518C100.637 29.9669 100.637 28.0046 100.83 26.0171H100.804Z" fill="#F297A4"/>
<path d="M100.805 135.774C100.548 133.248 99.9327 130.85 98.9582 128.747C94.7267 119.631 86.2511 112.399 77.3137 106.141C68.3764 99.8967 50.8352 87.0996 50.8352 87.0996C50.8352 87.0996 32.5752 99.8839 23.6378 106.141C14.7005 112.386 6.22489 119.631 1.99343 128.747C-4.28965 142.301 4.48139 167.625 25.4592 167.625C42.7312 167.625 48.745 156.727 50.4633 143.455C52.1815 156.727 58.1953 167.625 75.4674 167.625C90.7647 167.625 99.5735 154.162 100.779 141.609C100.587 139.621 100.587 137.659 100.779 135.774H100.805Z" fill="#F297A4"/>
<path d="M176.139 0C158.866 0 152.853 10.8993 151.134 24.1707C149.416 10.8993 143.402 0 126.13 0C110.833 0 102.024 13.4638 100.819 26.0171C101.011 28.0046 101.011 29.9669 100.819 31.8518C101.075 34.3778 101.691 36.7756 102.665 38.8785C106.897 47.9954 115.372 55.2272 124.31 61.4847C133.247 67.7293 151.506 80.5264 151.506 80.5264C151.506 80.5264 169.048 67.7421 177.985 61.4847C186.922 55.24 195.398 47.9954 199.629 38.8785C205.912 25.3251 197.142 0 176.164 0H176.139Z" fill="#F297A4"/>
<path d="M100.805 26.0156C100.613 28.0031 100.613 29.9654 100.805 31.8503C100.998 29.9654 100.998 28.0031 100.805 26.0156Z" fill="#F297A4"/>
<path d="M177.956 106.141C169.019 99.8967 151.478 87.0996 151.478 87.0996C151.478 87.0996 133.218 99.8839 124.281 106.141C115.343 112.386 106.868 119.631 102.636 128.747C101.662 130.85 101.046 133.235 100.79 135.774C100.982 137.659 100.982 139.621 100.79 141.609C101.995 154.162 110.804 167.625 126.102 167.625C143.374 167.625 149.387 156.727 151.106 143.455C152.824 156.727 158.838 167.625 176.11 167.625C197.075 167.625 205.859 142.301 199.575 128.747C195.344 119.631 186.868 112.399 177.93 106.141H177.956Z" fill="#F297A4"/>
<path d="M299.185 26.0171C297.979 13.4638 289.171 0 273.873 0C256.601 0 250.587 10.8993 248.869 24.1707C247.151 10.8993 241.137 0 223.865 0C202.9 0 194.116 25.3251 200.399 38.8785C204.631 47.9954 213.107 55.2272 222.044 61.4847C230.982 67.7293 249.241 80.5264 249.241 80.5264C249.241 80.5264 266.782 67.7421 275.72 61.4847C284.657 55.24 293.133 47.9954 297.364 38.8785C298.339 36.7756 298.954 34.3907 299.21 31.8518C299.018 29.9669 299.018 28.0046 299.21 26.0171H299.185Z" fill="#F297A4"/>
<path d="M299.183 135.774C298.927 133.248 298.312 130.85 297.337 128.747C293.106 119.631 284.63 112.399 275.693 106.141C266.755 99.8967 249.214 87.0996 249.214 87.0996C249.214 87.0996 230.955 99.8839 222.017 106.141C213.08 112.386 204.604 119.631 200.372 128.747C194.089 142.301 202.86 167.625 223.838 167.625C241.11 167.625 247.124 156.727 248.842 143.455C250.56 156.727 256.574 167.625 273.846 167.625C289.144 167.625 297.952 154.162 299.158 141.609C298.965 139.621 298.965 137.659 299.158 135.774H299.183Z" fill="#F297A4"/>
<path d="M374.515 0C357.243 0 351.229 10.8993 349.511 24.1707C347.793 10.8993 341.779 0 324.507 0C309.21 0 300.401 13.4638 299.196 26.0171C299.388 28.0046 299.388 29.9669 299.196 31.8518C299.452 34.3778 300.067 36.7756 301.042 38.8785C305.273 47.9954 313.749 55.2272 322.686 61.4847C331.624 67.7293 349.883 80.5264 349.883 80.5264C349.883 80.5264 367.424 67.7421 376.362 61.4847C385.299 55.24 393.775 47.9954 398.007 38.8785C404.29 25.3251 395.519 0 374.541 0H374.515Z" fill="#F297A4"/>
<path d="M376.336 106.141C367.399 99.8967 349.858 87.0996 349.858 87.0996C349.858 87.0996 331.599 99.8839 322.661 106.141C313.724 112.386 305.248 119.631 301.017 128.747C300.042 130.85 299.427 133.235 299.17 135.774C299.363 137.659 299.363 139.621 299.17 141.609C300.376 154.162 309.185 167.625 324.482 167.625C341.754 167.625 347.768 156.727 349.486 143.455C351.204 156.727 357.218 167.625 374.49 167.625C395.455 167.625 404.239 142.301 397.956 128.747C393.724 119.631 385.248 112.399 376.311 106.141H376.336Z" fill="#F297A4"/>
<path d="M100.805 135.777C100.613 137.662 100.613 139.625 100.805 141.612C100.998 139.625 100.998 137.662 100.805 135.777Z" fill="#F297A4"/>
</svg>
